# xmcd CD database file generated by Grip 3.0.4
# 
# Track frame offsets:
#       150
#       26447
#       61195
#       91507
#       114577
#       134007
#       150987
# 
# Disc length: 2321 seconds
# 
# Revision: 2
# Processed by: cddbd v1.5PL3 Copyright (c) Steve Scherf et al.
# Submitted via: Grip 3.0.4
# 
DISCID=4a090f07
DTITLE=B.B. King, Big Mama Thornton, Muddy Waters - Live At Newport
DYEAR=1993
DGENRE=Blues
TTITLE0=Little Red Rooster
TTITLE1=Ball And Chain
TTITLE2=Outside Help
TTITLE3=LongDistance Call
TTITLE4=Where's My Woman Been
TTITLE5=Got My Mojo Workin'
TTITLE6=You Done Lost Your Good Thing Now
EXTD=
EXTT0=
EXTT1=
EXTT2=
EXTT3=
EXTT4=
EXTT5=
EXTT6=
PLAYORDER=
